<?xml version="1.0" encoding="iso-8859-1"?>
<!-- Generator: Adobe Illustrator 16.0.0, SVG Export Plug-In . SVG Version: 6.00 Build 0)  -->
<!DOCTYPE svg PUBLIC "-//W3C//DTD SVG 1.1//EN" "http://www.w3.org/Graphics/SVG/1.1/DTD/svg11.dtd">
<svg version="1.1" id="Capa_1" xmlns="http://www.w3.org/2000/svg" xmlns:xlink="http://www.w3.org/1999/xlink" x="0px" y="0px"
	 width="612px" height="612px" viewBox="0 0 612 612" style="enable-background:new 0 0 612 612;" xml:space="preserve">
<g>
	<g id="_x34__2_">
		<g>
			<path d="M306,0C136.992,0,0,136.992,0,306c0,168.988,136.992,306,306,306s306-137.012,306-306C612,136.992,475.008,0,306,0z
				 M439.875,325.125H237.418l78.813,78.814c7.479,7.478,7.479,19.584,0,27.042c-7.478,7.479-19.583,7.479-27.042,0l-108.19-108.189
				c-4.571-4.571-6.005-10.863-4.954-16.792c-1.052-5.929,0.383-12.221,4.973-16.811l108.19-108.19
				c7.478-7.478,19.584-7.478,27.043,0c7.478,7.478,7.478,19.584,0,27.043l-78.833,78.833h202.457
				c10.557,0,19.125,8.568,19.125,19.125C459,316.557,450.432,325.125,439.875,325.125z"/>
		</g>
	</g>
</g>
<g>
</g>
<g>
</g>
<g>
</g>
<g>
</g>
<g>
</g>
<g>
</g>
<g>
</g>
<g>
</g>
<g>
</g>
<g>
</g>
<g>
</g>
<g>
</g>
<g>
</g>
<g>
</g>
<g>
</g>
</svg>
